#!OML:ASF X:\für Bonn\!DataBase\2005_08_10_Bjorn_Final\c3d\bjorn.ASF
:FULLY-SPECIFIED
:DEGREES
141
root 0.162467 19.6627 4.19639 -197.69 -35.4086 -164.183
lowerback 22.6005 -2.84513 -4.77297
upperback 16.9937 -7.857 -2.72298
thorax 6.52495 -5.6254 0.805941
lowerneck -12.8422 -4.65768 0.00270125
upperneck 13.7605 -10.431 16.9503
head 7.35528 -4.11629 4.36585
rclavicle -2.38542e-014 -1.30403e-013
rhumerus -39.1523 -4.5826 -81.4718
rradius 27.411
rwrist 18.1559
rhand -9.68788 13.2176
rfingers 7.12502
rthumb 16.2842 -16.1186
lclavicle -2.38542e-014 -1.30403e-013
lhumerus 38.2783 -18.2527 88.497
lradius 94.0823
lwrist -3.35927
lhand -45.3327 -22.2112
lfingers 7.12502
lthumb -18.1038 6.96632
rfemur -72.6917 -5.00503 22.8116
rtibia 111.724
rfoot 3.03539 7.64698
rtoes -20.0965
lfemur -1.22259 -8.07422 -6.84549
ltibia 17.3582
lfoot -0.783727 -15.5191
ltoes 3.86214
142
root 0.121572 19.7206 4.18841 -197.248 -34.8792 -164.602
lowerback 21.4913 -3.04869 -4.56849
upperback 16.6822 -7.8858 -2.72953
thorax 6.67047 -5.55515 0.608544
lowerneck -12.3757 -4.47075 0.182522
upperneck 14.2249 -10.102 16.2345
head 7.33366 -3.98581 4.15368
rclavicle 5.08889e-014 4.13472e-014
rhumerus -38.8194 -4.7337 -81.2569
rradius 27.5764
rwrist 17.9464
rhand -9.65119 13.2483
rfingers 7.12502
rthumb 16.3195 -16.085
lclavicle 5.08889e-014 4.13472e-014
lhumerus 36.4644 -17.5977 88.0835
lradius 93.4616
lwrist -3.64113
lhand -45.3251 -22.1022
lfingers 7.12502
lthumb -18.0964 7.07594
rfemur -70.6779 -5.0823 22.7542
rtibia 110.232
rfoot 2.76055 6.91377
rtoes -19.9741
lfemur -0.692194 -7.59139 -7.12189
ltibia 16.5077
lfoot -0.570863 -15.3832
ltoes 4.12031
143
root 0.076724 19.7257 4.17108 -196.794 -34.3349 -165.041
lowerback 20.3649 -3.2534 -4.38661
upperback 16.3777 -7.92988 -2.72224
thorax 6.84862 -5.4979 0.434666
lowerneck -11.8883 -4.27845 0.249125
upperneck 14.642 -9.74168 15.5687
head 7.30176 -3.84766 3.97952
rclavicle -1.27222e-014 -1.27222e-014
rhumerus -38.4633 -4.62845 -81.113
rradius 27.825
rwrist 17.5511
rhand -9.57676 13.304
rfingers 7.12502
rthumb 16.3912 -16.0234
lclavicle -1.27222e-014 -1.27222e-014
lhumerus 34.6514 -16.9385 87.5678
lradius 92.7527
lwrist -3.89575
lhand -45.2043 -22.231
lfingers 7.12502
lthumb -17.9802 6.95792
rfemur -69.034 -5.26695 22.6325
rtibia 109.014
rfoot 2.50218 6.2599
rtoes -20.0636
lfemur -0.221083 -7.11466 -7.41189
ltibia 15.7943
lfoot -0.391855 -15.2617
ltoes 4.50807
144
root 0.0307478 19.7276 4.15263 -196.313 -33.7907 -165.45
lowerback 19.2359 -3.45548 -4.16155
upperback 16.0287 -7.96025 -2.67734
thorax 6.98463 -5.42641 0.27935
lowerneck -11.3575 -4.10375 0.276495
upperneck 15.0498 -9.39096 14.889
head 7.26402 -3.72075 3.80598
rclavicle 3.97569e-014 4.45278e-014
rhumerus -38.2005 -4.61344 -80.9253
rradius 28.176
rwrist 17.1125
rhand -9.47589 13.3523
rfingers 7.12502
rthumb 16.4883 -15.9671
lclavicle 3.97569e-014 4.45278e-014
lhumerus 32.7566 -16.3639 87.0033
lradius 91.9462
lwrist -4.17632
lhand -45.0257 -22.5027
lfingers 7.12502
lthumb -17.8084 6.70188
rfemur -67.4202 -5.50491 22.5167
rtibia 107.732
rfoot 2.28846 5.61636
rtoes -20.1595
lfemur 0.125784 -6.62057 -7.66944
ltibia 15.2071
lfoot -0.260285 -15.1343
ltoes 5.09092
145
root -0.0166141 19.7283 4.1305 -195.839 -33.2324 -165.823
lowerback 18.0907 -3.65722 -3.88993
upperback 15.6689 -7.98949 -2.6316
thorax 7.11927 -5.34954 0.097376
lowerneck -10.827 -3.92455 0.301218
upperneck 15.4632 -9.04606 14.2319
head 7.23363 -3.59845 3.63837
rclavicle 3.02153e-014 4.45278e-014
rhumerus -38.0383 -4.65164 -80.7425
rradius 28.695
rwrist 16.8111
rhand -9.28929 13.3599
rfingers 7.12502
rthumb 16.6679 -15.9445
lclavicle 3.02153e-014 4.45278e-014
lhumerus 30.7621 -15.8803 86.3432
lradius 91.136
lwrist -4.34002
lhand -44.7138 -23.0271
lfingers 7.12502
lthumb -17.5083 6.2045
rfemur -65.7702 -5.75836 22.4201
rtibia 106.426
rfoot 1.95801 5.00125
rtoes -20.74
lfemur 0.136308 -6.10748 -7.89906
ltibia 15.2724
lfoot -0.511516 -15.1137
ltoes 5.37991
146
root -0.0635336 19.7243 4.10633 -195.346 -32.662 -166.2
lowerback 16.9654 -3.84446 -3.63652
upperback 15.2872 -8.01063 -2.55243
thorax 7.23531 -5.27172 -0.0376621
lowerneck -10.3911 -3.76278 0.259972
upperneck 15.9359 -8.72168 13.555
head 7.24571 -3.48447 3.47054
rclavicle -4.29375e-014 -8.90555e-014
rhumerus -37.8912 -4.53789 -80.5862
rradius 29.272
rwrist 16.3792
rhand -9.14194 13.3355
rfingers 7.12502
rthumb 16.8098 -15.9569
lclavicle -4.29375e-014 -8.90555e-014
lhumerus 28.7385 -15.5107 85.6755
lradius 90.2407
lwrist -4.40646
lhand -44.3082 -23.6705
lfingers 7.12502
lthumb -17.1178 5.5954
rfemur -64.1291 -6.01039 22.297
rtibia 105.078
rfoot 1.66196 4.3809
rtoes -21.4734
lfemur 0.0475051 -5.5596 -8.1224
ltibia 15.4847
lfoot -0.781099 -15.1244
ltoes 5.9447
147
root -0.110538 19.7186 4.08039 -194.836 -32.0807 -166.573
lowerback 15.8203 -4.01915 -3.36999
upperback 14.9137 -8.02526 -2.47969
thorax 7.3774 -5.19134 -0.19258
lowerneck -10.0062 -3.57917 0.26952
upperneck 16.4039 -8.38432 12.8866
head 7.26663 -3.36312 3.2961
rclavicle 0 3.49861e-014
rhumerus -37.6849 -4.42653 -80.4614
rradius 29.8465
rwrist 15.9381
rhand -8.93722 13.3124
rfingers 7.12502
rthumb 17.0069 -15.9631
lclavicle 0 3.49861e-014
lhumerus 26.7226 -15.2825 84.9666
lradius 89.2743
lwrist -4.30411
lhand -43.8569 -24.4432
lfingers 7.12502
lthumb -16.6834 4.85987
rfemur -62.4698 -6.23842 22.1337
rtibia 103.674
rfoot 1.46695 3.76335
rtoes -21.6935
lfemur -0.0989057 -5.05009 -8.35159
ltibia 15.7767
lfoot -1.12505 -15.0872
ltoes 6.41482
148
root -0.156313 19.7126 4.05235 -194.311 -31.493 -166.953
lowerback 14.7057 -4.18904 -3.13308
upperback 14.5001 -8.04143 -2.37305
thorax 7.47549 -5.11404 -0.289399
lowerneck -9.64496 -3.40266 0.217231
upperneck 16.9434 -8.04942 12.1762
head 7.31829 -3.2481 3.11685
rclavicle -5.40694e-014 -3.18055e-015
rhumerus -37.5004 -4.24448 -80.3179
rradius 30.3562
rwrist 15.5431
rhand -8.88645 13.3583
rfingers 7.12502
rthumb 17.0557 -15.9129
lclavicle -5.40694e-014 -3.18055e-015
lhumerus 24.5816 -15.1589 84.2844
lradius 88.2853
lwrist -4.10081
lhand -43.5159 -25.1828
lfingers 7.12502
lthumb -16.3551 4.14756
rfemur -60.7754 -6.42615 21.9403
rtibia 102.21
rfoot 1.17304 3.12784
rtoes -21.9578
lfemur -0.28479 -4.48 -8.58286
ltibia 16.1157
lfoot -1.48059 -15.091
ltoes 6.8022
